PathFileType	4	(X/Y/Z)	W08_1_OpenSim.trc																																																																																																																						
DataRate	CameraRate	NumFrames	NumMarkers	Units	OrigDataRate	OrigDataStartFrame	OrigNumFrames																																																																																																																		
100	100	10	40	mm	100	1876	3000																																																																																																																		
Frame#	Time	R.ASIS			R.PSIS			S2			L.PSIS			L.ASIS			R.TH1			R.TH2			R.TH3			R.MKnee			R.Knee			R.SH1			R.SH2			R.SH3			R.SH4			R.Ankle			R.MAnkle			R.Heel			R.MT5			R.MT1			L.TH1			L.TH2			L.TH3			L.TH4			L.MKnee			L.Knee			L.SH1			L.SH2			L.SH3			L.Ankle			L.MAnkle			L.Heel			L.MT5			L.MT1			R.Acr			L.Acr			C7			T10			Clav			Sternum			R.Back		
		X1	Y1	Z1	X2	Y2	Z2	X3	Y3	Z3	X4	Y4	Z4	X5	Y5	Z5	X6	Y6	Z6	X7	Y7	Z7	X8	Y8	Z8	X9	Y9	Z9	X10	Y10	Z10	X11	Y11	Z11	X12	Y12	Z12	X13	Y13	Z13	X14	Y14	Z14	X15	Y15	Z15	X16	Y16	Z16	X17	Y17	Z17	X18	Y18	Z18	X19	Y19	Z19	X20	Y20	Z20	X21	Y21	Z21	X22	Y22	Z22	X23	Y23	Z23	X24	Y24	Z24	X25	Y25	Z25	X26	Y26	Z26	X27	Y27	Z27	X28	Y28	Z28	X29	Y29	Z29	X30	Y30	Z30	X31	Y31	Z31	X32	Y32	Z32	X33	Y33	Z33	X34	Y34	Z34	X35	Y35	Z35	X36	Y36	Z36	X37	Y37	Z37	X38	Y38	Z38	X39	Y39	Z39	X40	Y40	Z40
1876	18.75	1032.8344	1057.2118	-444.6788	842.6619	1065.1818	-532.6934	833.0908	1062.8201	-577.8047	838.5708	1070.2771	-627.7712	1012.751	1058.3224	-738.2573	1080.0963	755.9386	-408.6009	1005.5004	725.2287	-394.526	1046.9711	623.4403	-398.9429	1108.8788	508.3677	-518.1657	1114.1155	524.4302	-401.0479	1166.0259	374.2635	-383.6346	1200.0671	267.2725	-391.3534	1087.0295	350.0841	-375.4357	1125.2527	242.9788	-374.005	1197.7251	88.2916	-370.9009	1231.0995	115.4109	-462.8991	1153.886	34.2835	-429.7647	1318.2106	81.4598	-337.1051	1366.2161	98.9329	-423.0605	982.8639	754.2971	-749.841	960.7241	648.0176	-738.0294	900.9976	765.7224	-764.7852	882.5856	658.885	-745.5442	903.7737	502.498	-619.0525	896.8741	510.4844	-727.1099	873.3362	378.0283	-742.8295	793.4991	397.7166	-744.9893	770.0543	290.6906	-735.7731	775.9962	82.8706	-726.8289	814.4069	91.9952	-629.8235	714.8451	44.0877	-666.8464	879.1149	32.8592	-754.659	928.4046	45.23	-658.8096	959.2168	1442.0488	-401.0892	966.4424	1460.6072	-727.6678	905.2015	1495.6523	-566.6382	873.7718	1170.0903	-583.7654	1042.2918	1401.2017	-567.6007	1070.8801	1256.7162	-570.1688	823.6464	1391.8285	-496.0826
1877	18.76	1033.9235	1056.12	-443.3826	843.4264	1063.7244	-530.5884	833.7339	1061.2831	-575.6652	839.0316	1068.7052	-625.6487	1012.7407	1057.0306	-736.7592	1081.0209	754.5041	-407.7244	1006.4052	724.2918	-392.7749	1047.1816	622.2054	-397.4542	1107.4377	506.7217	-516.8751	1113.5459	522.9677	-399.8035	1167.927	373.5333	-382.3782	1204.2793	267.2076	-390.3947	1089.3086	347.7527	-374.4487	1129.8535	241.3123	-373.4038	1205.8368	87.7868	-370.6209	1238.6238	116.2212	-462.5039	1163.335	33.0616	-429.7556	1326.649	83.641	-336.8748	1374.1523	102.8198	-422.7429	981.585	753.1084	-748.4193	958.7432	646.9784	-736.5843	899.892	765.0186	-763.5843	880.7258	658.3271	-744.334	900.6674	501.7088	-617.8784	893.7418	509.8129	-726.0031	868.813	377.5826	-741.8727	789.0615	398.1873	-744.1053	764.6352	291.2942	-735.0892	768.3079	83.2422	-726.6959	806.8	91.9132	-629.6418	707.0707	44.4097	-666.7385	871.1932	32.9752	-754.6589	920.5062	45.2848	-658.8291	960.1822	1440.775	-399.483	966.4965	1459.2087	-726.0577	905.5845	1494.2781	-564.9305	874.0948	1168.7033	-581.9301	1042.6914	1399.8784	-566.1667	1071.3831	1255.4086	-568.8727	824.3301	1390.4684	-494.042
1878	18.77	1035.066	1054.9992	-441.9337	844.2076	1062.1332	-528.3104	834.405	1059.5981	-573.3505	839.512	1066.9763	-623.35	1012.7485	1055.6611	-735.1237	1082.4591	753.227	-406.8137	1007.8469	723.379	-391.1549	1048.0975	621.068	-396.1737	1107.0618	505.4288	-515.7461	1113.7013	521.6539	-398.7828	1169.5887	372.4965	-381.4305	1207.4453	266.6246	-389.7608	1091.2024	345.6949	-373.8025	1133.2293	239.6986	-373.1515	1211.397	87.0393	-370.6726	1243.9705	116.4675	-462.4356	1169.9519	31.9497	-430.1622	1332.3594	84.6807	-336.7635	1379.6565	105.1477	-422.4569	980.5283	751.8452	-746.8103	957.0443	645.863	-734.9669	899.0012	764.2054	-762.2054	879.1284	657.6566	-742.9548	897.9045	500.8325	-616.5226	890.9179	509.0604	-724.7745	864.5642	377.0624	-740.7461	784.9517	398.6197	-743.071	759.4476	291.9062	-734.3045	760.6633	83.6704	-726.525	799.2468	91.8238	-629.4144	699.3193	44.788	-666.589	863.3147	33.0852	-754.6337	912.6293	45.3293	-658.8132	961.1925	1439.4563	-397.7688	966.5458	1457.7209	-724.3456	905.9769	1492.8444	-563.1171	874.4822	1167.2466	-579.9708	1043.1137	1398.4999	-564.6479	1071.922	1254.0435	-567.4539	825.046	1389.0515	-491.8736
1879	18.78	1036.2771	1053.84	-440.3196	845.027	1060.4352	-525.8624	835.1232	1057.7976	-570.8613	840.0314	1065.125	-620.8755	1012.7938	1054.2134	-733.3468	1084.3298	752.0724	-405.8208	1009.7235	722.4406	-389.7021	1049.6282	619.985	-395.1338	1107.7761	504.4689	-514.8195	1114.5798	520.4595	-398.0184	1171.0811	371.1254	-380.8364	1209.6373	265.4742	-389.4766	1092.7731	343.8744	-373.4665	1135.4668	238.0727	-373.1998	1214.4882	86.0072	-370.9877	1247.1904	116.0076	-462.6693	1173.7047	30.9231	-430.8583	1335.4558	84.417	-336.7913	1382.8254	105.6209	-422.2705	979.6724	750.51	-745.0115	955.615	644.6692	-733.1825	898.3012	763.2862	-760.6276	877.7753	656.8728	-741.3931	895.4996	499.8616	-614.9966	888.3954	508.2316	-723.4371	860.5986	376.4641	-739.4605	781.1725	399.0117	-741.876	754.488	292.5329	-733.4123	753.0656	84.1606	-726.3048	791.7537	91.7344	-629.1341	691.5935	45.2372	-666.3923	855.4695	33.181	-754.5827	904.7763	45.3661	-658.7607	962.2252	1438.1077	-395.9488	966.5843	1456.152	-722.5344	906.3706	1491.355	-561.206	874.954	1165.7247	-577.879	1043.5563	1397.0769	-563.0422	1072.4968	1252.637	-565.9056	825.7849	1387.5792	-489.5958
1880	18.79	1037.5813	1052.6327	-438.5347	845.9183	1058.6599	-523.2463	835.9161	1055.9164	-568.1976	840.6183	1063.1906	-618.2253	1012.9014	1052.6893	-731.4294	1086.527	750.9905	-404.6873	1011.9065	721.4297	-388.4235	1051.6334	618.9083	-394.3347	1109.4985	503.7908	-514.0986	1116.1022	519.3372	-397.5034	1172.4445	369.4251	-380.5997	1210.9512	263.7654	-389.5364	1094.0737	342.2442	-373.3936	1136.6893	236.3923	-373.497	1215.3275	84.7109	-371.4946	1248.4277	114.8007	-463.1677	1174.7172	30.0175	-431.7156	1336.1931	82.7995	-337.0057	1383.8555	104.1087	-422.2874	978.9907	749.1136	-743.0334	954.4344	643.4026	-731.2473	897.7603	762.2749	-758.8297	876.6431	655.9839	-739.637	893.4609	498.7935	-613.3182	886.167	507.3359	-722.0017	856.9076	375.7932	-738.035	777.7084	399.3741	-740.5171	749.7425	293.1862	-732.4064	745.5198	84.7206	-726.024	784.3287	91.6575	-628.8024	683.8941	45.7817	-666.1461	847.6432	33.2598	-754.5073	896.9514	45.3971	-658.6709	963.2606	1436.7443	-394.0268	966.605	1454.5087	-720.6255	906.7584	1489.8132	-559.2068	875.5326	1164.1398	-575.6448	1044.0173	1395.6217	-561.3472	1073.109	1251.2074	-564.2244	826.5397	1386.0502	-487.2241
1881	18.8	1039.01	1051.3711	-436.5825	846.9243	1056.84	-520.4618	836.8156	1053.9928	-565.3597	841.3058	1061.2153	-615.3998	1013.0999	1051.0956	-729.3786	1088.9331	749.9239	-403.3589	1014.2601	720.314	-387.2947	1053.9399	617.7941	-393.7407	1112.041	503.3207	-513.5467	1118.1222	518.233	-397.1883	1173.6931	367.4372	-380.6769	1211.5107	261.568	-389.8983	1095.1465	340.7575	-373.5214	1137.0505	234.6478	-373.9827	1214.2567	83.2206	-372.1221	1247.923	112.9114	-463.8754	1173.2743	29.3136	-432.6159	1334.9474	79.8991	-337.4634	1383.0354	100.6728	-422.6182	978.4609	747.6763	-740.8992	953.4789	642.0785	-729.187	897.3455	761.196	-756.7931	875.7081	655.0084	-737.6769	891.7938	497.6319	-611.5107	884.2296	506.386	-720.4726	853.4681	375.0684	-736.4938	774.5354	399.7297	-738.9975	745.1916	293.8867	-731.2837	738.0319	85.3635	-725.6763	776.981	91.6142	-628.4326	676.2201	46.4576	-665.853	839.8226	33.3219	-754.4116	889.1609	45.4229	-658.5465	964.2832	1435.381	-392.0084	966.6001	1452.7982	-718.618	907.1336	1488.2258	-557.1266	876.2393	1162.4938	-573.2608	1044.4951	1394.1492	-559.5605	1073.7613	1249.7737	-562.4105	827.3063	1384.4631	-484.7681
1882	18.81	1040.5939	1050.0584	-434.4775	848.0873	1055.0143	-517.509	837.8524	1052.0702	-562.3508	842.1249	1059.2455	-612.4032	1013.4196	1049.4456	-727.2075	1091.4316	748.8216	-401.7948	1016.6575	719.0891	-386.2621	1056.3644	616.6157	-393.2801	1115.1261	502.9751	-513.0924	1120.4541	517.1029	-396.9864	1174.8247	365.2418	-380.9807	1211.4648	259.0104	-390.4803	1096.0259	339.3828	-373.7707	1136.7341	232.8655	-374.5799	1211.71	81.635	-372.8012	1245.9969	110.4944	-464.7179	1169.801	28.903	-433.458	1332.1755	75.8987	-338.207	1380.7231	95.5593	-423.3463	978.0712	746.2266	-738.6409	952.7297	640.7222	-727.0349	897.032	760.0828	-754.5054	874.9531	653.9747	-735.5073	890.5063	496.3865	-609.6026	882.5917	505.3957	-718.8447	850.2528	374.3211	-734.8663	771.6316	400.1116	-737.3282	740.8173	294.6648	-730.0472	730.6091	86.1108	-725.2673	769.7203	91.6387	-628.0503	668.5717	47.314	-665.5226	831.9993	33.3702	-754.3033	881.408	45.4435	-658.3954	965.2836	1434.0322	-389.8986	966.5593	1451.0289	-716.5114	907.4915	1486.6075	-554.9681	877.0907	1160.7936	-570.7274	1044.9893	1392.6779	-557.6818	1074.4591	1248.3558	-560.4684	828.0822	1382.8217	-482.2312
1883	18.82	1042.3539	1048.7144	-432.2454	849.4366	1053.2329	-514.3942	839.0502	1050.1993	-559.1819	843.0981	1057.3298	-609.2473	1013.8867	1047.7624	-724.9325	1093.9182	747.6585	-399.9736	1018.9948	717.7858	-385.2488	1058.7413	615.3767	-392.8532	1118.4224	502.6776	-512.642	1122.9103	515.9316	-396.7858	1175.8348	362.9533	-381.3888	1210.9778	256.2668	-391.1671	1096.7472	338.117	-374.0414	1135.946	231.1055	-375.1898	1208.1537	80.0548	-373.4636	1243.0138	107.7639	-465.6048	1164.808	28.8502	-434.1609	1328.3517	71.0659	-339.2432	1377.304	89.1592	-424.4966	977.8221	744.7982	-736.2937	952.1796	639.3666	-724.8285	896.8116	758.9722	-751.9646	874.3759	652.9172	-733.1294	889.6143	495.0714	-607.6286	881.2759	504.3816	-717.1122	847.2421	373.5927	-733.1901	768.988	400.5613	-735.5279	736.6132	295.5608	-728.7083	723.2612	86.9939	-724.8171	762.5585	91.7799	-627.6897	660.9514	48.4144	-665.1721	824.1707	33.4102	-754.1934	873.6888	45.4577	-658.2279	966.2595	1432.7135	-387.6998	966.4714	1449.2122	-714.3097	907.8307	1484.983	-552.7292	878.0944	1159.0569	-568.0563	1045.5006	1391.2322	-555.7124	1075.2107	1246.9788	-558.4051	828.8666	1381.1383	-479.6101
1884	18.83	1044.2926	1047.3832	-429.919	850.9803	1051.5588	-511.1364	840.4174	1048.4396	-555.8772	844.2339	1055.5203	-605.9568	1014.5173	1046.0807	-722.5693	1096.3109	746.4534	-397.8993	1021.2011	716.473	-384.1632	1060.9499	614.1215	-392.3459	1121.5944	502.378	-512.1001	1125.3372	514.7457	-396.4667	1176.7244	360.705	-381.7607	1210.2061	253.5289	-391.826	1097.3486	336.9888	-374.2102	1134.8856	229.4526	-375.6897	1204.0012	78.566	-374.0429	1239.3181	104.9541	-466.4372	1158.8059	29.1685	-434.6685	1323.8867	65.721	-340.5287	1373.1309	81.9494	-426.0167	977.726	743.4271	-733.8899	951.8383	638.0485	-722.6063	896.6956	757.8989	-749.1824	873.9941	651.8691	-730.5551	889.1431	493.7023	-605.6281	880.3184	503.3641	-715.2855	844.4379	372.9278	-731.5114	766.6153	401.1234	-733.6252	732.5932	296.6214	-727.2865	716.0017	88.0537	-724.3597	755.5104	92.0981	-627.3846	653.3672	49.8335	-664.8242	816.3414	33.4499	-754.0974	865.9955	45.4615	-658.0574	967.2145	1431.4443	-385.4131	966.3265	1447.3678	-712.0228	908.1541	1483.3882	-550.4065	879.2446	1157.3164	-565.2747	1046.0304	1389.8435	-553.6558	1076.024	1245.6748	-556.2283	829.6594	1379.4383	-476.8979
1885	18.84	1046.3871	1046.1368	-427.5329	852.6991	1050.0663	-507.7715	841.9439	1046.8558	-552.4772	845.522	1053.8701	-602.5735	1015.3148	1044.4468	-720.1307	1098.5598	745.2763	-395.6031	1023.2476	715.2523	-382.9102	1062.933	612.9381	-391.6407	1124.3634	502.0645	-511.3896	1127.6387	513.616	-395.9219	1177.4963	358.6245	-381.9626	1209.2617	250.9697	-392.3338	1097.8586	336.0556	-374.1343	1133.7017	228.0011	-375.9433	1199.5321	77.2346	-374.481	1235.1638	102.2796	-467.1199	1152.2172	29.8131	-434.9536	1319.0546	60.2108	-341.9626	1368.4644	74.4306	-427.7758	977.8082	742.1492	-731.4559	951.7355	636.8024	-720.4019	896.7145	756.8906	-746.1862	873.8467	650.8572	-727.8109	889.13	492.2968	-603.6412	879.7704	502.3669	-713.3968	841.8736	372.3658	-729.8812	764.5485	401.8395	-731.6585	728.7957	297.8947	-725.8103	708.8505	89.3381	-723.9374	748.5953	92.6584	-627.1609	645.8362	51.6526	-664.5036	808.5223	33.5022	-754.0351	858.3187	45.448	-657.9006	968.1544	1430.2512	-383.0413	966.1192	1445.5283	-709.6692	908.4665	1481.8695	-547.9987	880.522	1155.6228	-562.4235	1046.5762	1388.5518	-551.5162	1076.895	1244.4842	-553.9475	830.46	1377.7615	-474.0876
